<svg xmlns="http://www.w3.org/2000/svg" viewBox="0 0 100 100" preserveAspectRatio="xMidYMid" width="198" height="198" style="shape-rendering: auto; display: block; background: rgb(0, 0, 0);" xmlns:xlink="http://www.w3.org/1999/xlink"><g><g transform="translate(50 50)">
<g>
<animateTransform attributeName="transform" type="rotate" values="0;45" keyTimes="0;1" dur="0.1923076923076923s" repeatCount="indefinite"></animateTransform><path d="M23.574350468252568 -4.5 L27.574350468252568 -4.5 L27.574350468252568 4.5 L23.574350468252568 4.5 A24 24 0 0 1 19.851563593509116 13.487602562830187 L19.851563593509116 13.487602562830187 L22.679990718255304 16.316029687576375 L16.316029687576382 22.679990718255304 L13.48760256283019 19.851563593509116 A24 24 0 0 1 4.5000000000000036 23.574350468252565 L4.5000000000000036 23.574350468252565 L4.5000000000000036 27.574350468252565 L-4.500000000000002 27.574350468252568 L-4.500000000000002 23.574350468252568 A24 24 0 0 1 -13.487602562830183 19.85156359350912 L-13.487602562830183 19.85156359350912 L-16.316029687576375 22.67999071825531 L-22.679990718255304 16.316029687576375 L-19.851563593509116 13.487602562830187 A24 24 0 0 1 -23.574350468252565 4.500000000000006 L-23.574350468252565 4.500000000000006 L-27.574350468252565 4.500000000000007 L-27.574350468252568 -4.499999999999999 L-23.574350468252568 -4.5 A24 24 0 0 1 -19.85156359350912 -13.487602562830181 L-19.85156359350912 -13.487602562830181 L-22.67999071825531 -16.31602968757637 L-16.316029687576382 -22.679990718255304 L-13.48760256283019 -19.851563593509116 A24 24 0 0 1 -4.500000000000007 -23.574350468252565 L-4.500000000000007 -23.574350468252565 L-4.500000000000008 -27.574350468252565 L4.499999999999997 -27.574350468252568 L4.499999999999998 -23.574350468252568 A24 24 0 0 1 13.487602562830181 -19.85156359350912 L13.487602562830181 -19.85156359350912 L16.31602968757637 -22.67999071825531 L22.679990718255304 -16.316029687576382 L19.851563593509116 -13.48760256283019 A24 24 0 0 1 23.574350468252565 -4.500000000000009 M0 -20A20 20 0 1 0 0 20 A20 20 0 1 0 0 -20" fill="#04900f"></path></g></g><g></g></g><!-- [ldio] generated by https://loading.io --></svg>